<?xml version="1.0" encoding="UTF-8" standalone="no"?>
<!-- Created with Inkscape (http://www.inkscape.org/) -->

<svg
   xmlns:dc="http://purl.org/dc/elements/1.1/"
   xmlns:cc="http://creativecommons.org/ns#"
   xmlns:rdf="http://www.w3.org/1999/02/22-rdf-syntax-ns#"
   xmlns:svg="http://www.w3.org/2000/svg"
   xmlns="http://www.w3.org/2000/svg"
   xmlns:sodipodi="http://sodipodi.sourceforge.net/DTD/sodipodi-0.dtd"
   xmlns:inkscape="http://www.inkscape.org/namespaces/inkscape"
   width="256"
   height="256"
   viewBox="0 0 256 256"
   id="svg2"
   version="1.1"
   inkscape:version="0.91 r13725"
   sodipodi:docname="backarrow_circle.svg">
  <sodipodi:namedview
     id="base"
     pagecolor="#ffffff"
     bordercolor="#666666"
     borderopacity="1.0"
     inkscape:pageopacity="0.0"
     inkscape:pageshadow="2"
     inkscape:zoom="1.979899"
     inkscape:cx="48.32575"
     inkscape:cy="153.05742"
     inkscape:document-units="px"
     inkscape:current-layer="layer1"
     showgrid="false"
     units="px"
     inkscape:window-width="1875"
     inkscape:window-height="1007"
     inkscape:window-x="1440"
     inkscape:window-y="45"
     inkscape:window-maximized="1" />
  <defs
     id="defs4" />
  <metadata
     id="metadata7">
    <rdf:RDF>
      <cc:Work
         rdf:about="">
        <dc:format>image/svg+xml</dc:format>
        <dc:type
           rdf:resource="http://purl.org/dc/dcmitype/StillImage" />
        <dc:title></dc:title>
      </cc:Work>
    </rdf:RDF>
  </metadata>
  <g
     transform="translate(0,-796.36216)"
     id="layer1"
     inkscape:groupmode="layer"
     inkscape:label="Layer 1">
    <path
       style="fill:#4a4a4a;fill-opacity:1;stroke:none;stroke-opacity:1"
       d="M 128 48 A 80 80 0 0 0 48 128 A 80 80 0 0 0 128 208 A 80 80 0 0 0 208 128 A 80 80 0 0 0 128 48 z M 128 65 A 63 63 0 0 1 191 128 A 63 63 0 0 1 128 191 A 63 63 0 0 1 65 128 A 63 63 0 0 1 128 65 z "
       transform="translate(0,796.36216)"
       id="path4160" />
    <path
       inkscape:connector-curvature="0"
       id="rect4138"
       d="m 146.98999,877.13606 3.79367,3.80732 c 2.49978,2.50877 1.82254,5.78562 -0.50572,8.12226 l -34.3962,34.51994 30.09663,30.2049 4.29969,4.31512 c 2.56469,2.57392 2.89046,5.72872 0.50563,8.12216 l -3.79367,3.80728 c -2.55411,2.56328 -5.97421,1.61904 -8.34612,-0.76136 l -4.55215,-4.56856 -31.86668,-31.98136 -4.552879,-4.5692 c -2.858325,-2.86864 -2.665786,-6.46256 -1.75e-4,-9.13777 l 4.552154,-4.56853 31.86668,-31.98132 4.55288,-4.56925 c 2.6487,-2.65823 5.88676,-3.22998 8.34626,-0.76163 z"
       style="fill:#4a4a4a;fill-opacity:1;stroke:none;stroke-opacity:1"
       sodipodi:nodetypes="zzccczzzzcczzcczz" />
  </g>
</svg>
