<?xml version="1.0" encoding="UTF-8" standalone="no"?>
<!-- Created with Inkscape (http://www.inkscape.org/) -->

<svg
   xmlns:dc="http://purl.org/dc/elements/1.1/"
   xmlns:cc="http://creativecommons.org/ns#"
   xmlns:rdf="http://www.w3.org/1999/02/22-rdf-syntax-ns#"
   xmlns:svg="http://www.w3.org/2000/svg"
   xmlns="http://www.w3.org/2000/svg"
   xmlns:sodipodi="http://sodipodi.sourceforge.net/DTD/sodipodi-0.dtd"
   xmlns:inkscape="http://www.inkscape.org/namespaces/inkscape"
   width="256"
   height="256"
   viewBox="0 0 67.733332 67.733335"
   version="1.1"
   id="svg9370"
   sodipodi:docname="information.svg"
   inkscape:version="0.92.2 2405546, 2018-03-11">
  <defs
     id="defs9364" />
  <sodipodi:namedview
     id="base"
     pagecolor="#ffffff"
     bordercolor="#666666"
     borderopacity="1.0"
     inkscape:pageopacity="0.0"
     inkscape:pageshadow="2"
     inkscape:zoom="2.8"
     inkscape:cx="112.28927"
     inkscape:cy="139.59253"
     inkscape:document-units="mm"
     inkscape:current-layer="layer1"
     showgrid="false"
     units="px"
     inkscape:window-width="1920"
     inkscape:window-height="1017"
     inkscape:window-x="1920"
     inkscape:window-y="35"
     inkscape:window-maximized="1" />
  <metadata
     id="metadata9367">
    <rdf:RDF>
      <cc:Work
         rdf:about="">
        <dc:format>image/svg+xml</dc:format>
        <dc:type
           rdf:resource="http://purl.org/dc/dcmitype/StillImage" />
        <dc:title></dc:title>
      </cc:Work>
    </rdf:RDF>
  </metadata>
  <g
     inkscape:label="Layer 1"
     inkscape:groupmode="layer"
     id="layer1"
     transform="translate(0,-229.26665)">
    <path
       style="fill:#4a4a4a;fill-opacity:1;stroke:none;stroke-width:94.48818207;stroke-miterlimit:4;stroke-dasharray:none;stroke-opacity:1;paint-order:stroke markers fill"
       d="M 128 18 A 110 110 0 0 0 18 128 A 110 110 0 0 0 128 238 A 110 110 0 0 0 238 128 A 110 110 0 0 0 128 18 z M 128 51.994141 A 19 19 0 0 1 147 70.994141 A 19 19 0 0 1 128 89.994141 A 19 19 0 0 1 109 70.994141 A 19 19 0 0 1 128 51.994141 z M 110.5 106.5 L 145.5 106.5 L 145.5 204 L 110.5 204 L 110.5 106.5 z "
       id="path9376"
       transform="matrix(0.26458333,0,0,0.26458333,0,229.26665)" />
  </g>
</svg>
